<mxfile host="Electron" modified="2024-06-14T00:39:23.412Z" agent="Mozilla/5.0 (Windows NT 10.0; Win64; x64) AppleWebKit/537.36 (KHTML, like Gecko) draw.io/24.5.1 Chrome/124.0.6367.207 Electron/30.0.6 Safari/537.36" etag="vYjMt75I7WNztn0btMo-" version="24.5.1" type="device">
  <diagram name="Page-1" id="Jdg5KhBZnE6s-Spu1S8s">
    <mxGraphModel dx="1048" dy="618" grid="1" gridSize="10" guides="1" tooltips="1" connect="1" arrows="1" fold="1" page="1" pageScale="1" pageWidth="850" pageHeight="1100" math="0" shadow="0">
      <root>
        <mxCell id="0" />
        <mxCell id="1" parent="0" />
        <mxCell id="uHDO3rnWCAcZMie3fH-h-8" value="" style="edgeStyle=orthogonalEdgeStyle;rounded=0;orthogonalLoop=1;jettySize=auto;html=1;" edge="1" parent="1" source="uHDO3rnWCAcZMie3fH-h-1" target="uHDO3rnWCAcZMie3fH-h-7">
          <mxGeometry relative="1" as="geometry" />
        </mxCell>
        <mxCell id="uHDO3rnWCAcZMie3fH-h-15" style="edgeStyle=orthogonalEdgeStyle;rounded=0;orthogonalLoop=1;jettySize=auto;html=1;exitX=1;exitY=0.5;exitDx=0;exitDy=0;" edge="1" parent="1" source="uHDO3rnWCAcZMie3fH-h-1" target="uHDO3rnWCAcZMie3fH-h-12">
          <mxGeometry relative="1" as="geometry" />
        </mxCell>
        <mxCell id="uHDO3rnWCAcZMie3fH-h-17" style="edgeStyle=orthogonalEdgeStyle;rounded=0;orthogonalLoop=1;jettySize=auto;html=1;exitX=0;exitY=0.5;exitDx=0;exitDy=0;entryX=1;entryY=0.5;entryDx=0;entryDy=0;" edge="1" parent="1" source="uHDO3rnWCAcZMie3fH-h-1" target="uHDO3rnWCAcZMie3fH-h-3">
          <mxGeometry relative="1" as="geometry" />
        </mxCell>
        <mxCell id="uHDO3rnWCAcZMie3fH-h-18" style="edgeStyle=orthogonalEdgeStyle;rounded=0;orthogonalLoop=1;jettySize=auto;html=1;exitX=0.5;exitY=0;exitDx=0;exitDy=0;entryX=0.5;entryY=1;entryDx=0;entryDy=0;" edge="1" parent="1" source="uHDO3rnWCAcZMie3fH-h-1" target="uHDO3rnWCAcZMie3fH-h-2">
          <mxGeometry relative="1" as="geometry" />
        </mxCell>
        <mxCell id="uHDO3rnWCAcZMie3fH-h-1" value="PaperGolf&lt;div&gt;(Game Module)&lt;/div&gt;" style="rounded=0;whiteSpace=wrap;html=1;fillColor=#d5e8d4;strokeColor=#82b366;" vertex="1" parent="1">
          <mxGeometry x="300" y="390" width="120" height="60" as="geometry" />
        </mxCell>
        <mxCell id="uHDO3rnWCAcZMie3fH-h-16" style="edgeStyle=orthogonalEdgeStyle;rounded=0;orthogonalLoop=1;jettySize=auto;html=1;exitX=0.5;exitY=0;exitDx=0;exitDy=0;" edge="1" parent="1" source="uHDO3rnWCAcZMie3fH-h-2" target="uHDO3rnWCAcZMie3fH-h-4">
          <mxGeometry relative="1" as="geometry" />
        </mxCell>
        <mxCell id="uHDO3rnWCAcZMie3fH-h-2" value="PGPlayer" style="rounded=0;whiteSpace=wrap;html=1;fillColor=#d5e8d4;strokeColor=#82b366;" vertex="1" parent="1">
          <mxGeometry x="300" y="270" width="120" height="60" as="geometry" />
        </mxCell>
        <mxCell id="uHDO3rnWCAcZMie3fH-h-3" value="PGGameplay" style="rounded=0;whiteSpace=wrap;html=1;fillColor=#d5e8d4;strokeColor=#82b366;" vertex="1" parent="1">
          <mxGeometry x="130" y="390" width="120" height="60" as="geometry" />
        </mxCell>
        <mxCell id="uHDO3rnWCAcZMie3fH-h-4" value="PGCore" style="rounded=0;whiteSpace=wrap;html=1;fillColor=#d5e8d4;strokeColor=#82b366;" vertex="1" parent="1">
          <mxGeometry x="300" y="160" width="120" height="60" as="geometry" />
        </mxCell>
        <mxCell id="uHDO3rnWCAcZMie3fH-h-5" value="PGSettings" style="rounded=0;whiteSpace=wrap;html=1;fillColor=#f8cecc;strokeColor=#b85450;" vertex="1" parent="1">
          <mxGeometry x="300" y="760" width="120" height="60" as="geometry" />
        </mxCell>
        <mxCell id="uHDO3rnWCAcZMie3fH-h-6" value="PGUI" style="rounded=0;whiteSpace=wrap;html=1;fillColor=#f8cecc;strokeColor=#b85450;" vertex="1" parent="1">
          <mxGeometry x="300" y="680" width="120" height="60" as="geometry" />
        </mxCell>
        <mxCell id="uHDO3rnWCAcZMie3fH-h-7" value="PGAI" style="rounded=0;whiteSpace=wrap;html=1;fillColor=#d5e8d4;strokeColor=#82b366;" vertex="1" parent="1">
          <mxGeometry x="300" y="470" width="120" height="60" as="geometry" />
        </mxCell>
        <mxCell id="uHDO3rnWCAcZMie3fH-h-10" value="PGMP" style="rounded=0;whiteSpace=wrap;html=1;fillColor=#f8cecc;strokeColor=#b85450;" vertex="1" parent="1">
          <mxGeometry x="300" y="610" width="120" height="60" as="geometry" />
        </mxCell>
        <mxCell id="uHDO3rnWCAcZMie3fH-h-11" value="Core Multiplayer utilities" style="text;html=1;align=center;verticalAlign=middle;resizable=0;points=[];autosize=1;strokeColor=none;fillColor=none;" vertex="1" parent="1">
          <mxGeometry x="440" y="625" width="150" height="30" as="geometry" />
        </mxCell>
        <mxCell id="uHDO3rnWCAcZMie3fH-h-12" value="Multiplayer Sessions Plugin" style="html=1;dropTarget=0;whiteSpace=wrap;" vertex="1" parent="1">
          <mxGeometry x="540" y="380" width="120" height="80" as="geometry" />
        </mxCell>
        <mxCell id="uHDO3rnWCAcZMie3fH-h-13" value="" style="shape=module;jettyWidth=8;jettyHeight=4;" vertex="1" parent="uHDO3rnWCAcZMie3fH-h-12">
          <mxGeometry x="1" width="20" height="20" relative="1" as="geometry">
            <mxPoint x="-27" y="7" as="offset" />
          </mxGeometry>
        </mxCell>
        <mxCell id="uHDO3rnWCAcZMie3fH-h-19" value="Later" style="text;html=1;align=center;verticalAlign=middle;resizable=0;points=[];autosize=1;strokeColor=none;fillColor=none;" vertex="1" parent="1">
          <mxGeometry x="330" y="570" width="50" height="30" as="geometry" />
        </mxCell>
      </root>
    </mxGraphModel>
  </diagram>
</mxfile>
